<!--?xml version="1.0" standalone="no"?-->
              <svg id="sw-js-blob-svg" viewBox="0 0 100 100" xmlns="http://www.w3.org/2000/svg" version="1.1">
                    <defs> 
                        <linearGradient id="sw-gradient" x1="0" x2="1" y1="1" y2="0">
                            <stop id="stop1" stop-color="rgba(171.968, 78.35, 34.042, 1)" offset="0%"></stop>
                            <stop id="stop2" stop-color="rgba(251, 168, 31, 1)" offset="100%"></stop>
                        </linearGradient>
                    </defs>
                <path fill="url(#sw-gradient)" d="M20.1,-32.8C24.6,-28.3,25.9,-20.4,30.1,-13.2C34.2,-5.9,41.3,0.5,42.8,7.7C44.2,15,40,23,33.5,27.1C26.9,31.2,18.1,31.5,10.7,31.4C3.3,31.2,-2.8,30.7,-9.9,30.2C-17.1,29.7,-25.3,29.4,-30.8,25.4C-36.2,21.3,-39,13.7,-39.4,6.1C-39.8,-1.5,-37.8,-8.9,-33.6,-14.2C-29.4,-19.5,-23,-22.6,-17,-26.4C-11,-30.3,-5.5,-34.8,1.1,-36.6C7.8,-38.4,15.6,-37.3,20.1,-32.8Z" width="100%" height="100%" transform="translate(50 50)" stroke-width="0" style="transition: all 0.3s ease 0s;"></path>
              </svg>