<svg width="285" height="30" viewBox="0 0 285 30" fill="none" xmlns="http://www.w3.org/2000/svg">
<path fill-rule="evenodd" clip-rule="evenodd" d="M0.732233 25.481C-0.244078 26.4573 -0.244078 28.0402 0.732233 29.0165C1.70854 29.9928 3.29146 29.9928 4.26777 29.0165L29.0165 4.26777C29.9928 3.29146 29.9928 1.70854 29.0165 0.732233C28.0402 -0.244078 26.4573 -0.244077 25.481 0.732233L0.732233 25.481ZM29.0164 25.481C28.0401 26.4573 28.0401 28.0402 29.0164 29.0165C29.9927 29.9928 31.5756 29.9928 32.5519 29.0165L57.3007 4.26777C58.277 3.29146 58.277 1.70854 57.3007 0.732233C56.3244 -0.244078 54.7415 -0.244077 53.7651 0.732233L29.0164 25.481ZM57.3006 29.0165C56.3243 28.0402 56.3243 26.4573 57.3006 25.481L82.0493 0.732233C83.0256 -0.244077 84.6086 -0.244078 85.5849 0.732233C86.5612 1.70854 86.5612 3.29146 85.5849 4.26777L60.8361 29.0165C59.8598 29.9928 58.2769 29.9928 57.3006 29.0165ZM85.5848 25.481C84.6085 26.4573 84.6085 28.0402 85.5848 29.0165C86.5611 29.9928 88.144 29.9928 89.1203 29.0165L113.869 4.26777C114.845 3.29146 114.845 1.70854 113.869 0.732233C112.893 -0.244078 111.31 -0.244077 110.334 0.732233L85.5848 25.481ZM113.869 29.0165C112.893 28.0402 112.893 26.4573 113.869 25.481L138.618 0.732233C139.594 -0.244077 141.177 -0.244078 142.153 0.732233C143.13 1.70854 143.13 3.29146 142.153 4.26777L117.404 29.0165C116.428 29.9928 114.845 29.9928 113.869 29.0165ZM142.153 25.481C141.177 26.4573 141.177 28.0402 142.153 29.0165C143.129 29.9928 144.712 29.9928 145.689 29.0165L170.437 4.26777C171.414 3.29146 171.414 1.70854 170.437 0.732233C169.461 -0.244078 167.878 -0.244077 166.902 0.732233L142.153 25.481ZM170.437 29.0165C169.461 28.0402 169.461 26.4573 170.437 25.481L195.186 0.732233C196.162 -0.244077 197.745 -0.244078 198.722 0.732233C199.698 1.70854 199.698 3.29146 198.722 4.26777L173.973 29.0165C172.997 29.9928 171.414 29.9928 170.437 29.0165ZM198.721 25.481C197.745 26.4573 197.745 28.0402 198.721 29.0165C199.698 29.9928 201.281 29.9928 202.257 29.0165L227.006 4.26777C227.982 3.29146 227.982 1.70854 227.006 0.732233C226.029 -0.244078 224.447 -0.244077 223.47 0.732233L198.721 25.481ZM227.006 29.0165C226.029 28.0402 226.029 26.4573 227.006 25.481L251.754 0.732233C252.731 -0.244077 254.314 -0.244078 255.29 0.732233C256.266 1.70854 256.266 3.29146 255.29 4.26777L230.541 29.0165C229.565 29.9928 227.982 29.9928 227.006 29.0165ZM255.29 25.481C254.314 26.4573 254.314 28.0402 255.29 29.0165C256.266 29.9928 257.849 29.9928 258.825 29.0165L283.574 4.26777C284.55 3.29146 284.55 1.70854 283.574 0.732233C282.598 -0.244078 281.015 -0.244077 280.039 0.732233L255.29 25.481Z" fill="#b1422f"/>
</svg>
